<svg version="1.1" id="Layer_1" xmlns="http://www.w3.org/2000/svg" xmlns:xlink="http://www.w3.org/1999/xlink" x="0px" y="0px"
	 width="100%" viewBox="0 0 512 512" enable-background="new 0 0 512 512" xml:space="preserve">
<path fill="#000000" opacity="1.000000" stroke="none" 
	d="
M513.000000,396.600006 
	C511.821838,401.990356 511.203705,407.086731 508.473907,411.676849 
	C504.293762,418.705750 498.494690,423.675018 490.961670,426.637238 
	C486.159637,428.525574 481.311768,430.321930 476.402222,431.904419 
	C472.396973,433.195496 469.084045,432.085968 467.381134,427.967804 
	C466.001465,424.631317 467.961853,421.178101 472.243286,419.457062 
	C476.567902,417.718689 481.009735,416.273285 485.346191,414.562622 
	C496.864410,410.018921 501.990051,399.542389 498.182953,388.484863 
	C494.574341,378.003815 483.585938,372.818298 472.085052,376.603638 
	C432.864655,389.512482 393.694885,402.575043 354.505768,415.578949 
	C343.166260,423.716278 330.103516,422.064331 317.350342,422.080322 
	C292.520935,422.111450 267.691498,422.091125 242.862061,422.076355 
	C241.200119,422.075348 239.486847,422.175720 237.886673,421.823578 
	C234.186523,421.009308 231.909836,418.530243 232.101196,414.756378 
	C232.283966,411.152069 234.765244,409.131073 238.356247,408.762268 
	C240.173035,408.575714 242.018143,408.635956 243.850494,408.634369 
	C272.012756,408.610016 300.175354,408.513885 328.336914,408.646027 
	C333.699524,408.671173 338.596344,407.208588 343.282410,405.135803 
	C350.720764,401.845490 350.558105,387.185516 343.228302,381.329620 
	C339.215027,378.123383 334.507202,377.429688 329.586823,377.429413 
	C306.923706,377.428162 284.257904,377.215271 261.598511,377.503143 
	C249.399765,377.658142 238.808868,374.003571 229.035645,366.886139 
	C205.198090,349.526306 181.190872,332.399628 157.298599,315.114624 
	C149.759933,309.660706 141.577942,306.613342 132.140335,306.998749 
	C125.984955,307.250092 119.796379,307.303802 113.649765,306.960663 
	C108.700340,306.684357 107.014725,308.269287 107.056435,313.426453 
	C107.284203,341.586853 107.155319,369.750092 107.151978,397.912354 
	C107.150688,408.743988 107.255432,419.576965 107.105568,430.406464 
	C107.054543,434.093231 107.928429,436.111908 112.119370,435.684265 
	C127.596611,434.104736 141.015869,439.301270 154.117432,447.237030 
	C180.046280,462.942444 206.487885,477.799408 232.644791,493.131256 
	C242.301163,498.791351 252.054382,500.027008 262.743958,496.088562 
	C324.007507,473.516724 385.337219,451.124512 446.646301,428.676270 
	C448.810730,427.883759 450.912903,426.647583 453.364532,427.565643 
	C456.313385,428.669891 458.102692,430.809387 458.151245,433.928253 
	C458.208496,437.607269 455.803986,439.583588 452.581665,440.774261 
	C436.958435,446.547180 421.354553,452.372833 405.716583,458.105347 
	C359.748566,474.956146 313.747314,491.716461 267.803772,508.633514 
	C253.429443,513.926331 239.834503,512.940308 226.551605,505.181915 
	C197.493256,488.209412 168.242325,471.565063 139.262970,454.459808 
	C130.060593,449.028046 120.307518,448.858093 110.262527,449.185974 
	C107.499153,449.276215 107.037743,451.072693 107.101067,453.271484 
	C107.216537,457.281677 106.941772,461.259094 106.258972,465.212616 
	C103.956619,478.543579 91.736343,489.151215 78.185265,489.273834 
	C63.022175,489.411072 47.856953,489.325714 32.692673,489.314392 
	C16.647139,489.302399 6.345361,481.475067 2.013545,466.051178 
	C1.789317,465.252777 1.507454,464.470612 1.126208,463.340454 
	C1.000000,457.311951 1.000000,451.623932 1.273063,445.250336 
	C3.780278,441.830322 6.322956,439.796295 10.129321,441.267029 
	C13.798652,442.684845 14.730680,445.888885 14.906998,449.344666 
	C15.093492,452.999878 14.897704,456.673767 15.055984,460.331390 
	C15.442096,469.253876 21.830242,475.631287 30.784386,475.707489 
	C46.270531,475.839355 61.759571,475.838104 77.245598,475.696228 
	C85.889641,475.617096 92.246971,469.399597 92.940521,460.745209 
	C93.113098,458.591736 93.102829,456.420105 93.103371,454.256836 
	C93.115662,405.130188 93.127693,356.003540 93.109482,306.876892 
	C93.107140,300.566467 94.017143,294.256409 93.025597,287.943237 
	C91.576736,278.718353 85.777054,273.266266 76.510117,273.163879 
	C61.357975,272.996399 46.202152,273.076569 31.048536,273.164490 
	C23.771694,273.206757 18.817999,276.957825 15.925792,283.488403 
	C14.605191,286.470306 14.990151,289.714050 14.989183,292.860840 
	C14.976386,334.493500 14.999231,376.126190 14.994142,417.758850 
	C14.993633,421.913818 14.428901,425.909454 9.844073,427.622101 
	C5.286813,429.324432 3.220988,425.939880 1.000000,423.000000 
	C1.000000,376.979095 1.000000,330.958221 1.000000,284.468658 
	C2.800229,282.062531 2.666422,279.352966 3.770571,277.111328 
	C9.711550,265.050110 19.907932,259.610382 32.778847,259.210663 
	C46.587982,258.781799 60.426407,258.886353 74.242531,259.190674 
	C93.729912,259.619873 105.358498,270.778351 107.177551,290.234070 
	C107.253090,291.041901 107.405479,291.842560 107.561150,292.916138 
	C115.092560,293.837738 122.551559,293.812500 129.967010,293.529510 
	C143.905640,292.997559 155.972641,297.374298 167.134140,305.612183 
	C189.505371,322.123657 212.259903,338.115417 234.655380,354.594604 
	C243.459015,361.072540 252.801666,364.354584 263.863159,364.146240 
	C286.171600,363.726074 308.493652,363.932312 330.809418,364.029083 
	C346.890961,364.098846 358.913696,373.260071 361.842987,387.652649 
	C362.523529,390.996277 362.385315,394.506561 362.617737,397.852448 
	C364.897766,398.579254 366.518036,397.487396 368.204742,396.930359 
	C401.394501,385.970062 434.553467,374.916138 467.767883,364.031219 
	C485.679901,358.161194 502.887421,365.673218 510.169403,382.177368 
	C511.601837,385.423889 511.942535,388.903229 512.883545,392.640137 
	C513.000000,394.066681 513.000000,395.133331 513.000000,396.600006 
z"/>
<path fill="#000000" opacity="1.000000" stroke="none" 
	d="
M315.583344,1.000000 
	C319.186096,3.875884 320.298706,7.478219 320.077667,11.711364 
	C319.861847,15.843867 320.141632,20.005840 319.849304,24.129742 
	C319.562012,28.182550 317.100037,30.582672 313.005188,30.509487 
	C309.049988,30.438799 306.935028,27.815117 306.777740,24.076580 
	C306.548126,18.619503 306.679291,13.143165 306.788239,7.677659 
	C306.841919,4.983018 308.489746,3.096567 310.773987,1.271645 
	C312.388885,1.000000 313.777802,1.000000 315.583344,1.000000 
z"/>
<path fill="#000000" opacity="1.000000" stroke="none" 
	d="
M351.261810,48.603157 
	C385.675354,63.274292 407.047852,88.670692 414.534668,124.801682 
	C420.024811,151.297043 415.038239,176.464127 400.537109,199.534592 
	C398.996216,201.986099 397.354980,204.222488 394.038971,204.345612 
	C391.441101,204.442093 389.535736,203.376755 388.131348,201.291733 
	C386.261322,198.515411 387.074829,195.882416 388.682068,193.354599 
	C394.639404,183.985153 398.770569,173.915115 401.132019,163.027710 
	C412.032959,112.768608 377.406311,63.181496 326.346436,56.099525 
	C275.331787,49.023827 229.510498,84.692665 224.132416,135.774597 
	C221.145630,164.143524 230.433365,188.282211 250.285889,208.355560 
	C263.997101,222.219284 273.738373,238.116074 277.705933,257.317719 
	C278.578491,261.540588 279.562897,265.783813 279.325623,270.156525 
	C279.158905,273.229767 280.308807,274.775665 283.646698,274.700043 
	C289.976044,274.556702 296.312164,274.593903 302.643158,274.697510 
	C305.723267,274.747925 306.702057,273.289398 306.693817,270.414368 
	C306.629913,248.083786 306.566223,225.752640 306.684540,203.422653 
	C306.704285,199.702682 304.665161,199.158020 301.809052,198.698853 
	C275.868164,194.528397 255.376907,181.226624 239.040726,161.033813 
	C232.806442,153.327759 232.718704,151.914261 238.927887,144.257614 
	C253.274612,126.566460 270.867249,113.438446 293.278839,108.096001 
	C322.878418,101.040070 348.907654,109.170319 371.973083,128.224838 
	C378.680267,133.765656 384.545715,140.125443 389.876068,146.996689 
	C392.844238,150.822906 392.891937,154.337219 389.801483,158.277145 
	C373.153900,179.500687 352.538177,194.308304 325.321533,198.482407 
	C321.253296,199.106323 319.894989,200.834854 319.936188,205.033646 
	C320.143890,226.195816 320.146790,247.362534 319.922638,268.524475 
	C319.871704,273.333740 321.360229,275.087250 326.186737,274.756165 
	C331.328674,274.403442 336.521423,274.503265 341.676910,274.737274 
	C345.171600,274.895905 346.684509,273.903015 347.007172,270.127777 
	C348.667725,250.698654 355.624603,233.303864 367.804443,218.037613 
	C369.050812,216.475449 370.298553,214.902893 371.674744,213.458115 
	C374.939178,210.030960 378.976227,209.530746 381.837128,212.097183 
	C384.890900,214.836609 384.878052,218.457245 381.621735,222.222229 
	C372.651672,232.593445 366.130157,244.258713 362.734375,257.594543 
	C362.200714,259.690338 361.792999,261.818268 361.333466,263.932770 
	C359.899719,270.529877 359.855225,275.608887 367.285217,279.970642 
	C375.555481,284.825653 377.801300,293.885956 375.224243,303.347839 
	C372.527435,313.249420 365.605560,318.575562 355.607147,320.106873 
	C354.787323,320.232452 353.941620,320.180695 353.115479,320.276306 
	C352.477081,320.350128 351.850433,320.525757 351.378510,320.623138 
	C350.383759,322.176453 351.254883,323.416412 351.514343,324.657776 
	C354.427521,338.593811 344.703735,351.650330 330.489166,352.158661 
	C319.005280,352.569305 307.485443,352.535767 295.998932,352.163361 
	C283.363556,351.753693 273.766968,340.584595 274.659241,327.966583 
	C274.820984,325.679077 275.188171,323.406158 275.488007,320.896637 
	C272.799316,320.366760 270.372864,319.967255 267.985046,319.404083 
	C258.838104,317.246765 252.228577,310.268585 250.787506,301.327789 
	C249.269379,291.908752 253.015717,282.837250 261.258270,278.263855 
	C265.155548,276.101440 266.185852,273.687134 265.846649,269.535889 
	C264.165222,248.957901 255.237259,231.993179 240.675232,217.699829 
	C224.167297,201.496460 213.899399,181.861389 211.037857,159.017807 
	C206.091248,119.529381 220.025726,87.139687 251.247574,62.904903 
	C281.430573,39.476490 315.162598,35.908676 351.261810,48.603157 
M348.959015,128.531265 
	C339.375671,123.167274 329.093201,119.966805 318.148956,119.368439 
	C290.909180,117.879128 269.671906,129.710251 252.121170,149.555893 
	C250.442230,151.454376 249.901855,153.096176 251.733887,155.189346 
	C266.373901,171.916153 283.912201,183.631744 306.579071,185.647186 
	C334.249664,188.107559 355.778564,175.955658 374.002441,156.328186 
	C376.663696,153.461929 376.316772,151.402832 373.825623,148.740265 
	C366.621277,141.040115 358.885284,134.035904 348.959015,128.531265 
M333.499969,288.213531 
	C313.540039,288.208282 293.579895,288.151825 273.620300,288.229950 
	C267.867584,288.252472 263.637146,292.201660 263.524078,297.197205 
	C263.417084,301.924622 267.866913,306.589630 273.320953,306.618713 
	C299.933319,306.760620 326.547150,306.769135 353.159637,306.646240 
	C358.829620,306.620056 362.833984,302.343170 362.813019,297.224091 
	C362.791718,292.010956 358.880707,288.347839 352.962433,288.243317 
	C346.810028,288.134705 340.654236,288.216278 333.499969,288.213531 
M319.477509,338.809692 
	C322.310303,338.806671 325.144379,338.856537 327.975677,338.789978 
	C334.467529,338.637390 338.782440,334.817841 338.678711,329.384918 
	C338.573517,323.876465 334.393555,320.319550 327.771729,320.277618 
	C318.107208,320.216400 308.441956,320.223877 298.777191,320.257782 
	C292.248871,320.280670 287.925354,323.905792 287.808533,329.335388 
	C287.690552,334.818848 292.264282,338.740906 298.988281,338.800415 
	C305.486572,338.857910 311.985779,338.811157 319.477509,338.809692 
z"/>
<path fill="#000000" opacity="1.000000" stroke="none" 
	d="
M174.278534,41.840603 
	C175.137573,45.247498 176.886276,48.057674 176.326004,51.767727 
	C172.356796,52.264915 168.078369,54.131287 166.594498,47.925098 
	C165.980759,45.358208 163.886475,45.426945 161.824356,45.383137 
	C159.783371,45.339779 158.216492,45.885784 157.589081,48.023869 
	C157.084152,49.744659 156.999802,51.878395 154.641754,52.130924 
	C152.529602,52.357124 150.058380,53.022587 148.424423,51.390160 
	C146.902756,49.869907 148.438919,47.934002 148.941635,46.250061 
	C151.128143,38.925850 153.555618,31.668427 155.540207,24.291153 
	C156.598679,20.356504 158.992676,19.688210 162.555634,19.673471 
	C166.062592,19.658966 168.058090,20.665161 168.989380,24.284334 
	C170.478134,30.069958 172.429077,35.736652 174.278534,41.840603 
M161.118195,37.331509 
	C164.373444,36.182640 164.373444,36.182640 161.611221,30.082956 
	C161.257339,32.692959 160.976944,34.761013 161.118195,37.331509 
z"/>
<path fill="#000000" opacity="1.000000" stroke="none" 
	d="
M16.958040,24.929575 
	C16.613016,22.737116 15.082365,20.265154 18.402338,19.919643 
	C21.413813,19.606236 24.980541,18.762072 26.088621,23.202118 
	C27.491302,28.822618 28.877285,34.447285 30.573727,41.294094 
	C32.138535,34.984138 33.666698,29.916714 34.594067,24.741623 
	C35.358212,20.477373 37.661125,19.371881 41.577045,19.726549 
	C44.343117,19.977074 45.038712,21.267872 44.310947,23.686565 
	C41.728920,32.267883 39.077290,40.828556 36.547050,49.425018 
	C35.366848,53.434727 32.134964,52.012867 29.531174,52.295635 
	C26.727976,52.600060 24.807278,51.752594 23.958979,48.718491 
	C21.769184,40.886284 19.384871,33.108467 16.958040,24.929575 
z"/>
<path fill="#000000" opacity="1.000000" stroke="none" 
	d="
M136.952835,49.637257 
	C136.839584,45.523338 136.823730,41.867702 136.748016,38.213314 
	C136.719009,36.813942 136.411392,35.401566 134.629913,35.433350 
	C133.026932,35.461952 132.298279,36.669125 132.236816,38.116405 
	C132.095901,41.435154 131.996033,44.760433 132.040421,48.080910 
	C132.084335,51.366852 130.438156,52.359936 127.371536,52.322323 
	C124.412773,52.286026 122.614799,51.579762 122.696579,48.144459 
	C122.827057,42.663895 122.848518,37.173176 122.664566,31.695196 
	C122.529434,27.670795 124.743164,26.469334 127.962036,27.415937 
	C130.697693,28.220438 132.932571,27.870060 135.557770,27.074348 
	C141.314392,25.329489 145.547287,28.494246 146.134903,34.899532 
	C146.497955,38.856899 146.339554,42.869793 146.273758,46.855423 
	C146.242874,48.726685 147.054535,51.388317 144.440857,51.917828 
	C141.907806,52.431000 138.758743,53.608822 136.952835,49.637257 
z"/>
<path fill="#000000" opacity="1.000000" stroke="none" 
	d="
M111.043694,27.421459 
	C119.073303,31.687820 121.462585,39.721905 117.180786,46.906059 
	C113.689384,52.764088 106.027962,54.509533 100.196426,50.775475 
	C95.106812,47.516468 93.017586,40.329582 95.412354,34.318340 
	C97.768875,28.403109 103.177246,25.906816 111.043694,27.421459 
M107.245483,34.642605 
	C102.338348,35.963730 104.340034,39.750366 104.531868,42.723427 
	C104.623940,44.150406 106.044258,45.124809 107.488403,44.327858 
	C110.662064,42.576488 109.748878,39.555481 109.330750,36.838928 
	C109.223557,36.142467 108.397453,35.556660 107.245483,34.642605 
z"/>
<path fill="#000000" opacity="1.000000" stroke="none" 
	d="
M69.844994,34.526512 
	C70.897415,36.539482 73.122574,36.620853 74.783058,37.674503 
	C77.591377,39.456501 78.981148,41.906887 78.677261,45.203209 
	C78.371956,48.514828 76.492477,50.689186 73.433472,51.884731 
	C69.459465,53.437893 65.570786,53.010521 61.821999,51.197491 
	C60.246311,50.435440 58.054653,49.705517 59.506248,47.220848 
	C60.552280,45.430378 61.461525,43.104431 64.428864,44.540478 
	C65.729027,45.169689 67.094582,46.030411 68.928787,45.069565 
	C68.493393,43.126728 66.630356,43.015537 65.315453,42.320766 
	C61.642075,40.379845 58.892403,37.721550 59.992580,33.236031 
	C61.083469,28.788389 64.454071,26.851170 68.925934,26.690788 
	C70.948769,26.618238 72.938446,26.739059 74.757721,27.715204 
	C76.442497,28.619188 78.939835,29.186195 77.682030,31.936081 
	C76.715668,34.048801 75.511139,36.290039 72.386116,34.840378 
	C71.664597,34.505672 70.788643,34.503876 69.844994,34.526512 
z"/>
<path fill="#000000" opacity="1.000000" stroke="none" 
	d="
M401.771118,33.229462 
	C408.384918,36.025520 409.567932,39.722519 405.598358,44.862324 
	C402.550018,48.809311 399.320007,52.628212 395.988037,56.340023 
	C393.299408,59.335190 390.063416,59.957962 386.673584,57.388672 
	C383.449036,54.944683 383.037079,51.362919 385.828430,47.729046 
	C388.967377,43.642662 392.359161,39.747662 395.707794,35.826488 
	C397.169739,34.114574 399.061920,33.117691 401.771118,33.229462 
z"/>
<path fill="#000000" opacity="1.000000" stroke="none" 
	d="
M261.703522,22.159597 
	C261.174286,20.514893 260.701660,19.267027 260.339569,17.987885 
	C259.313873,14.364678 260.758759,11.703131 263.956116,10.165038 
	C267.282562,8.564850 270.478180,9.485404 272.180847,12.626665 
	C275.196686,18.190504 277.259918,24.229074 278.553375,30.411024 
	C279.287445,33.919426 277.272675,36.516136 273.731537,37.508274 
	C270.117126,38.520927 267.389404,36.969753 265.942352,33.780674 
	C264.297607,30.155888 263.165527,26.298456 261.703522,22.159597 
z"/>
<path fill="#000000" opacity="1.000000" stroke="none" 
	d="
M196.361603,129.913147 
	C189.273468,130.062881 182.778824,128.601303 176.402374,126.900711 
	C173.046448,126.005692 171.402817,123.007217 172.379089,119.381561 
	C173.363525,115.725548 175.974991,113.614525 179.767654,114.101357 
	C184.866745,114.755867 189.903275,115.908325 194.958862,116.887329 
	C198.203522,117.515640 200.506790,119.349686 201.006866,122.689781 
	C201.511200,126.058311 199.879059,128.435440 196.361603,129.913147 
z"/>
<path fill="#000000" opacity="1.000000" stroke="none" 
	d="
M206.088455,74.862747 
	C208.528290,76.357002 210.817520,77.458633 212.744476,79.010193 
	C215.764954,81.442245 216.273514,84.723763 214.180954,87.911247 
	C212.233124,90.878296 209.183868,91.926125 205.892563,90.192345 
	C201.037949,87.635071 196.202881,84.991669 191.614761,81.994225 
	C188.392334,79.889000 186.864548,76.657143 189.191193,72.961082 
	C191.389160,69.469414 194.702988,68.847237 198.340591,70.589134 
	C200.886719,71.808357 203.301804,73.301224 206.088455,74.862747 
z"/>
<path fill="#000000" opacity="1.000000" stroke="none" 
	d="
M236.713165,58.827591 
	C233.558044,59.114334 231.614990,57.612446 229.945694,55.658588 
	C226.922195,52.119728 223.860367,48.608349 220.971924,44.960857 
	C217.994263,41.200699 218.132263,37.258904 221.096039,34.747150 
	C224.071457,32.225529 227.803482,32.743355 231.166367,36.430267 
	C234.188675,39.743832 237.108963,43.167141 239.855927,46.711258 
	C243.857727,51.874390 242.987335,55.322563 236.713165,58.827591 
z"/>
<path fill="#000000" opacity="1.000000" stroke="none" 
	d="
M424.691345,72.533180 
	C426.334503,71.641266 427.587799,70.770042 428.973846,70.258369 
	C432.381195,69.000519 435.304901,69.967201 437.161102,73.012520 
	C439.066742,76.138969 438.465332,79.465805 435.535370,81.422066 
	C430.587097,84.725945 425.377380,87.700981 420.044525,90.344055 
	C416.472504,92.114426 413.547668,90.208839 411.750946,86.992424 
	C409.876068,83.636108 411.261444,80.718498 414.075684,78.760170 
	C417.330170,76.495499 420.918518,74.710640 424.691345,72.533180 
z"/>
<path fill="#000000" opacity="1.000000" stroke="none" 
	d="
M176.007477,174.378296 
	C172.910034,172.335770 171.551407,169.838608 172.415604,166.509277 
	C173.234360,163.355087 175.632843,162.066666 178.640182,161.537323 
	C183.550308,160.673065 188.424911,159.566025 193.360077,158.898163 
	C197.145691,158.385864 199.904999,160.214325 200.882584,163.960953 
	C201.748230,167.278564 200.461166,170.406326 197.306656,171.321472 
	C190.514877,173.291809 183.640640,175.387482 176.007477,174.378296 
z"/>
<path fill="#000000" opacity="1.000000" stroke="none" 
	d="
M426.608215,168.995453 
	C424.743103,161.545975 427.971588,157.911240 434.868958,159.145966 
	C439.424805,159.961502 443.985535,160.761246 448.516571,161.700790 
	C452.745026,162.577591 454.798126,165.263260 454.197021,169.588959 
	C453.686279,173.264679 450.161407,175.501450 445.974274,174.838257 
	C441.404449,174.114441 436.871399,173.161545 432.310913,172.374466 
	C430.106110,171.993927 428.177002,171.214722 426.608215,168.995453 
z"/>
<path fill="#000000" opacity="1.000000" stroke="none" 
	d="
M365.111267,22.010040 
	C363.693237,25.963572 362.608673,29.645355 361.036072,33.105335 
	C359.358002,36.797291 356.409485,39.004196 352.225647,37.281105 
	C348.243958,35.641266 347.050690,32.436447 348.539673,28.301826 
	C350.056122,24.090834 351.425201,19.825188 353.010712,15.641033 
	C354.835663,10.825091 358.177856,8.786858 362.009705,9.934182 
	C365.951813,11.114517 367.285309,14.499317 365.863403,19.756445 
	C365.690735,20.394928 365.442932,21.013100 365.111267,22.010040 
z"/>
<path fill="#000000" opacity="1.000000" stroke="none" 
	d="
M450.872559,114.870918 
	C453.943481,116.829155 454.862183,119.393181 454.119232,122.422340 
	C453.356873,125.530685 451.060028,126.943016 447.975891,127.442223 
	C443.217499,128.212418 438.498779,129.229507 433.738342,129.984985 
	C430.003052,130.577774 426.979156,129.283569 425.936859,125.467529 
	C424.855591,121.508743 426.427551,118.302986 430.504395,117.385559 
	C437.071899,115.907646 443.527618,113.205132 450.872559,114.870918 
z"/>
<path fill="#000000" opacity="1.000000" stroke="none" 
	d="
M418.720337,198.211548 
	C424.154907,201.111298 429.307434,203.794891 434.258026,206.810089 
	C437.813324,208.975479 439.337646,212.303909 436.979340,216.139359 
	C434.638519,219.946442 431.081665,220.038330 427.409943,218.030792 
	C423.478668,215.881332 419.606354,213.623596 415.717285,211.397507 
	C412.801941,209.728790 410.436523,207.468887 411.198792,203.860947 
	C411.959015,200.262451 414.504547,198.219238 418.720337,198.211548 
z"/>
<path fill="#000000" opacity="1.000000" stroke="none" 
	d="
M198.109100,218.601624 
	C193.594955,220.193573 190.373123,218.908493 188.718277,214.949997 
	C187.010406,210.864609 189.589920,208.374664 192.827881,206.464828 
	C196.986267,204.012085 201.156738,201.578522 205.356903,199.198303 
	C209.126968,197.061829 212.262238,198.249588 214.331497,201.663635 
	C216.350708,204.995132 215.515381,208.265274 212.251022,210.361816 
	C207.775909,213.235992 203.074951,215.758545 198.109100,218.601624 
z"/>
<path fill="#000000" opacity="1.000000" stroke="none" 
	d="
M188.345001,40.976635 
	C188.342529,43.461899 188.208405,45.461708 188.368546,47.437672 
	C188.664658,51.091309 187.151260,52.399815 183.471466,52.347843 
	C179.572174,52.292770 179.229279,49.984695 179.265640,47.124546 
	C179.360428,39.669571 179.570572,32.214935 179.562927,24.760338 
	C179.559753,21.661165 180.164017,19.732035 183.892303,19.723761 
	C187.466888,19.715832 188.484802,21.290743 188.390305,24.569160 
	C188.237534,29.868937 188.347244,35.176277 188.345001,40.976635 
z"/>
<path fill="#000000" opacity="1.000000" stroke="none" 
	d="
M91.263397,39.020931 
	C91.257980,42.160191 91.154198,44.810764 91.266441,47.452152 
	C91.403076,50.667625 90.351440,52.313969 86.772537,52.356133 
	C83.110100,52.399269 81.667488,50.963104 81.753181,47.392834 
	C81.880150,42.102757 81.876907,36.807404 81.813683,31.515676 
	C81.771439,27.979822 83.736031,26.929949 86.854019,26.988073 
	C89.895943,27.044777 91.416527,28.407936 91.255547,31.582451 
	C91.138435,33.891663 91.250740,36.212513 91.263397,39.020931 
z"/>
<path fill="#000000" opacity="1.000000" stroke="none" 
	d="
M55.158546,28.867983 
	C55.311726,35.715511 55.289856,42.167934 55.401493,48.618042 
	C55.458893,51.934872 53.447323,52.260265 50.857307,52.315910 
	C48.011097,52.377056 46.549644,51.436192 46.625046,48.340416 
	C46.749966,43.211548 46.626900,38.077057 46.644680,32.945061 
	C46.666500,26.647993 48.957882,25.436342 55.158546,28.867983 
z"/>
<path fill="#000000" opacity="1.000000" stroke="none" 
	d="
M52.531288,16.248756 
	C55.662544,17.836447 56.815067,20.011200 55.263474,22.885935 
	C54.120354,25.003851 51.967812,25.684120 49.711765,25.037502 
	C47.223255,24.324253 45.681377,22.450764 46.168865,19.831717 
	C46.757343,16.670111 49.179939,15.776891 52.531288,16.248756 
z"/>
<path fill="#000000" opacity="1.000000" stroke="none" 
	d="
M89.817093,17.277679 
	C92.236641,20.934395 91.577454,23.547876 87.790588,24.971397 
	C85.723618,25.748394 83.833191,24.962687 82.585228,23.157278 
	C81.330864,21.342606 81.313690,19.341335 82.826286,17.689425 
	C84.772606,15.563839 87.101677,15.445135 89.817093,17.277679 
z"/>
<path fill="#000000" opacity="1.000000" stroke="none" 
	d="
M319.927734,176.429596 
	C305.018219,179.815735 291.849518,171.557175 288.980255,157.383347 
	C286.233398,143.814056 295.056763,130.951080 309.021759,128.164429 
	C311.499237,127.670044 313.984558,127.621300 316.469788,128.072113 
	C318.832336,128.500671 319.748444,129.504410 319.095581,132.224289 
	C316.426086,143.346268 323.083496,149.681335 334.097076,146.727310 
	C334.723267,146.559357 335.385559,146.525879 335.967285,146.439316 
	C342.151031,156.462296 334.336975,171.248962 319.927734,176.429596 
z"/>
</svg>